<svg xmlns="http://www.w3.org/2000/svg" viewBox="0 0 400 240" width="400" height="240"><rect width="400" height="240" fill="none"/><ellipse cx="200" cy="196" rx="140" ry="12" fill="#e6dccf"/><rect x="316" y="108" width="42" height="60" rx="10" fill="#2b5b81" stroke="#244b6b" stroke-width="2"/><rect x="92" y="100" width="224" height="76" rx="12" fill="#356f9e" stroke="#204461" stroke-width="2.5"/><rect x="106" y="108" width="5" height="60" rx="2" fill="#2b5b81"/><rect x="121" y="108" width="5" height="60" rx="2" fill="#2b5b81"/><rect x="136" y="108" width="5" height="60" rx="2" fill="#2b5b81"/><rect x="151" y="108" width="5" height="60" rx="2" fill="#2b5b81"/><rect x="166" y="108" width="5" height="60" rx="2" fill="#2b5b81"/><rect x="181" y="108" width="5" height="60" rx="2" fill="#2b5b81"/><rect x="196" y="108" width="5" height="60" rx="2" fill="#2b5b81"/><rect x="211" y="108" width="5" height="60" rx="2" fill="#2b5b81"/><rect x="226" y="108" width="5" height="60" rx="2" fill="#2b5b81"/><rect x="241" y="108" width="5" height="60" rx="2" fill="#2b5b81"/><rect x="256" y="108" width="5" height="60" rx="2" fill="#2b5b81"/><rect x="271" y="108" width="5" height="60" rx="2" fill="#2b5b81"/><rect x="286" y="108" width="5" height="60" rx="2" fill="#2b5b81"/><rect x="78" y="106" width="18" height="64" rx="7" fill="#244b6b" stroke="#1d3d56" stroke-width="2"/><rect x="36" y="126" width="44" height="24" rx="5" fill="#c9d1d9"/><rect x="160" y="62" width="96" height="42" rx="8" fill="#2b5b81"/><rect x="172" y="52" width="72" height="14" rx="5" fill="#244b6b"/><rect x="98" y="170" width="44" height="16" rx="4" fill="#8d97a3" stroke="#7b8794" stroke-width="1.5"/><rect x="254" y="170" width="44" height="16" rx="4" fill="#8d97a3" stroke="#7b8794" stroke-width="1.5"/></svg>